<?xml version="1.0" encoding="iso-8859-1"?>
<!-- Generator: Adobe Illustrator 18.1.1, SVG Export Plug-In . SVG Version: 6.00 Build 0)  -->
<svg width="36" height="29" version="1.1" id="Capa_1" xmlns="http://www.w3.org/2000/svg" xmlns:xlink="http://www.w3.org/1999/xlink" x="0px" y="0px"
	viewBox="0 0 15.767 15.767" style="enable-background:new 0 0 15.767 15.767;" xml:space="preserve">
<g>
	<path style="fill:#222222;" d="M7.884,0.935C3.537,0.935,0,3.45,0,6.541c0,2.103,1.621,3.998,4.239,4.969
		c0.055,0.522-0.143,1.528-1.737,2.977c-0.067,0.062-0.084,0.162-0.04,0.242c0.035,0.064,0.103,0.103,0.173,0.103
		c0.018,0,0.035-0.002,0.052-0.007c0.15-0.041,3.67-1.012,5.796-2.698c4.09-0.22,7.284-2.664,7.284-5.585
		C15.768,3.45,12.232,0.935,7.884,0.935z M10.495,9.295c-0.201,0.201-0.464,0.303-0.728,0.304c-0.265,0-0.528-0.1-0.729-0.301
		l-1.15-1.146l-1.146,1.15C6.541,9.504,6.277,9.606,6.014,9.606c-0.264,0-0.528-0.1-0.729-0.3C4.883,8.904,4.881,8.251,5.283,7.848
		l1.145-1.15l-1.15-1.146C4.874,5.149,4.873,4.498,5.275,4.094C5.677,3.69,6.33,3.69,6.733,4.092l1.15,1.146l1.146-1.151
		c0.4-0.403,1.052-0.404,1.456-0.003c0.402,0.402,0.404,1.055,0.002,1.458l-1.146,1.15l1.15,1.146
		C10.895,8.24,10.896,8.892,10.495,9.295z"/>
</g>
<g>
</g>
<g>
</g>
<g>
</g>
<g>
</g>
<g>
</g>
<g>
</g>
<g>
</g>
<g>
</g>
<g>
</g>
<g>
</g>
<g>
</g>
<g>
</g>
<g>
</g>
<g>
</g>
<g>
</g>
</svg>
